<svg width="25" height="25" viewBox="0 0 25 25" fill="none" xmlns="http://www.w3.org/2000/svg">
<path d="M11.8003 4.5H4.80029C4.26986 4.5 3.76115 4.71071 3.38608 5.08579C3.01101 5.46086 2.80029 5.96957 2.80029 6.5V20.5C2.80029 21.0304 3.01101 21.5391 3.38608 21.9142C3.76115 22.2893 4.26986 22.5 4.80029 22.5H18.8003C19.3307 22.5 19.8394 22.2893 20.2145 21.9142C20.5896 21.5391 20.8003 21.0304 20.8003 20.5V13.5" stroke="#624DE3" stroke-width="2" stroke-linecap="round" stroke-linejoin="round"/>
<path d="M19.3003 2.99998C19.6981 2.60216 20.2377 2.37866 20.8003 2.37866C21.3629 2.37866 21.9025 2.60216 22.3003 2.99998C22.6981 3.39781 22.9216 3.93737 22.9216 4.49998C22.9216 5.06259 22.6981 5.60216 22.3003 5.99998L12.8003 15.5L8.80029 16.5L9.80029 12.5L19.3003 2.99998Z" stroke="#624DE3" stroke-width="2" stroke-linecap="round" stroke-linejoin="round"/>
</svg>
