<svg width="25" height="25" viewBox="0 0 25 25" fill="none" xmlns="http://www.w3.org/2000/svg">
<path d="M3.80029 6.5H5.80029H21.8003" stroke="#A30D11" stroke-width="2" stroke-linecap="round" stroke-linejoin="round"/>
<path d="M8.80029 6.5V4.5C8.80029 3.96957 9.01101 3.46086 9.38608 3.08579C9.76115 2.71071 10.2699 2.5 10.8003 2.5H14.8003C15.3307 2.5 15.8394 2.71071 16.2145 3.08579C16.5896 3.46086 16.8003 3.96957 16.8003 4.5V6.5M19.8003 6.5V20.5C19.8003 21.0304 19.5896 21.5391 19.2145 21.9142C18.8394 22.2893 18.3307 22.5 17.8003 22.5H7.80029C7.26986 22.5 6.76115 22.2893 6.38608 21.9142C6.01101 21.5391 5.80029 21.0304 5.80029 20.5V6.5H19.8003Z" stroke="#A30D11" stroke-width="2" stroke-linecap="round" stroke-linejoin="round"/>
<path d="M10.8003 11.5V17.5" stroke="#A30D11" stroke-width="2" stroke-linecap="round" stroke-linejoin="round"/>
<path d="M14.8003 11.5V17.5" stroke="#A30D11" stroke-width="2" stroke-linecap="round" stroke-linejoin="round"/>
</svg>
